<svg width="36" height="32" viewBox="0 0 36 32" fill="none" xmlns="http://www.w3.org/2000/svg">
<g clip-path="url(#clip0_1_570)">
<path d="M12.1062 19.8062C11.8624 19.4438 11.6374 19.0812 11.4249 18.7125C8.47868 17.5031 6.26493 15.8481 4.83743 13.7425C3.09181 11.1625 2.93806 8.48125 3.02368 7H8.04806C8.00618 6.36875 7.99993 6 7.99993 6L8.00516 4H1.70368C1.00993 4 0.408492 4.47437 0.24443 5.14875C0.19368 5.36125 -0.981945 10.45 2.31681 15.3687C4.65743 18.8575 8.60431 21.3081 14.0356 22.7062C14.5873 22.848 15.1456 23.315 15.0049 23.1906C13.2437 21.625 12.1374 19.8375 12.1062 19.8062ZM35.7562 5.14875C35.5937 4.47437 34.9874 4 34.2937 4H27.9937L27.9988 6C27.9988 6 27.9928 6.37037 27.9509 7H32.9753C33.0612 8.47875 32.907 11.1644 31.1609 13.7375C29.7347 15.8431 27.5203 17.4981 24.5734 18.7075C24.3608 19.0769 24.1345 19.4406 23.8947 19.8013C23.8612 19.8347 22.7572 21.6225 20.9915 23.1863C20.851 23.3106 21.4094 22.8436 21.9609 22.7019C27.3959 21.3056 31.3422 18.855 33.6797 15.3644C36.9812 10.45 35.8062 5.36125 35.7562 5.14875ZM21.3874 14.475L20.8512 11.3512L23.1224 9.145C23.36 8.91431 23.2296 8.51125 22.9019 8.46313L19.7719 8.00587L18.37 5.1665C18.2235 4.86963 17.8002 4.86963 17.6537 5.1665L16.2519 8.00587L13.1124 8.4625C12.7874 8.5125 12.6562 8.9125 12.8937 9.14375L15.1631 11.3481L14.6249 14.475C14.5689 14.8017 14.9113 15.0504 15.2044 14.8964L18.0075 13.4233L20.8106 14.8964C21.1062 15.05 21.4437 14.8 21.3874 14.475Z" fill="#4E00FF"/>
<path d="M27.9437 6L27.9999 2C27.9999 0.895624 27.0943 0 25.9893 0H10.0124C8.90617 0 7.99992 0.895624 7.99992 2L8.00029 6C8.00029 6 8.00029 16.9813 15.0065 23.1875C15.6137 23.7253 16.0003 24.4781 16.0003 25.2887C15.9999 26.7938 14.7937 28 13.2874 28H12.9999C11.343 28 10.0005 29.3431 10.0005 31C10.0005 31.5522 10.4482 32 10.9443 32H24.9437C25.4959 32 25.8874 31.5522 25.8874 31C25.8874 29.3431 24.5449 28 22.8881 28H22.5978C21.0959 28 19.8878 26.7919 19.8878 25.2906C19.8878 24.4794 20.2743 23.7269 20.8815 23.1894C27.9437 16.9813 27.9437 6 27.9437 6ZM18.0062 13.4187L15.2062 14.8938C14.9131 15.0478 14.5705 14.799 14.6267 14.4724L15.1629 11.3486L12.8937 9.14375C12.6562 8.9125 12.7874 8.5125 13.1124 8.4625L16.2537 8.0035L17.6555 5.16413C17.8022 4.86725 18.2255 4.86725 18.3718 5.16413L19.7737 8.0035L22.9037 8.46075C23.2314 8.5086 23.3618 8.91194 23.1242 9.14262L20.853 11.3489L21.3892 14.4726C21.4451 14.7993 21.1027 15.0481 20.8097 14.894L18.0062 13.4187Z" fill="#DFD1FF"/>
</g>
<defs>
<clipPath id="clip0_1_570">
<rect width="35.9996" height="32" fill="white"/>
</clipPath>
</defs>
</svg>
