<svg width="32" height="32" viewBox="0 0 32 32" fill="none" xmlns="http://www.w3.org/2000/svg">
<g clip-path="url(#clip0_1_562)">
<path d="M16 0C9.925 0 5 4.925 5 11C5 17.075 9.925 22 16 22C22.075 22 27 17.075 27 11C27 4.925 22.075 0 16 0ZM16 19C11.5887 19 8 15.4113 8 11C8 6.58875 11.5887 3 16 3C20.4113 3 24 6.58875 24 11C24 15.4113 20.4125 19 16 19Z" fill="#4E00FF"/>
<path d="M28 4H24.4856C24.477 3.9895 24.4668 3.98047 24.4582 3.96997C26.0438 5.87625 27 8.325 27 11C27 17.075 22.075 22 16 22C9.925 22 5 17.075 5 11C5 8.32625 5.95563 5.87625 7.54188 3.96875C7.53125 3.98063 7.525 3.98938 7.5125 4H4C1.79688 4 0 5.79688 0 8V28C0 30.2031 1.79688 32 4 32H28C30.2031 32 32 30.2031 32 28V8C32 5.79688 30.2062 4 28 4ZM16 16.5C17.3825 16.5 18.5 15.3825 18.5 14C18.5 13.3438 18.2344 12.75 17.8125 12.305L19.9219 7.39062C20.1406 6.88281 19.8984 6.29688 19.3906 6.07812C18.8906 5.85938 18.2969 6.09375 18.0781 6.60938L15.9875 11.5C14.6125 11.5187 13.5 12.625 13.5 14C13.5 15.3813 14.6187 16.5 16 16.5Z" fill="#DFD1FF"/>
</g>
<defs>
<clipPath id="clip0_1_562">
<rect width="32" height="32" fill="white"/>
</clipPath>
</defs>
</svg>
