<svg width="32" height="32" viewBox="0 0 32 32" fill="none" xmlns="http://www.w3.org/2000/svg">
<g clip-path="url(#clip0_1_577)">
<path d="M30 14C31.1063 14 32 14.8938 32 16C32 24.8375 24.8375 32 16 32C7.1625 32 0 24.8375 0 16C0 14.8938 0.895625 14 2 14C3.10437 14 4 14.8938 4 16C4 22.625 9.31875 28 16 28C22.625 28 28 22.625 28 16C28 14.8938 28.8937 14 30 14Z" fill="#4E00FF"/>
<path d="M24.4125 11.5875C25.1937 12.3687 25.1937 13.6313 24.4125 14.4125L17.4125 21.4125C16.6312 22.1938 15.3687 22.1938 14.5875 21.4125L7.58749 14.4125C6.80624 13.6313 6.80624 12.3687 7.58749 11.5875C8.36874 10.8062 9.63124 10.8062 10.4125 11.5875L13.9437 15.1687V2C13.9437 0.895624 14.8937 0 15.9437 0C17.1062 0 18 0.895624 18 2V15.1687L21.5875 11.5875C22.3687 10.8062 23.6312 10.8062 24.4125 11.5875Z" fill="#DFD1FF"/>
</g>
<defs>
<clipPath id="clip0_1_577">
<rect width="32" height="32" fill="white"/>
</clipPath>
</defs>
</svg>
