<svg width="21" height="21" viewBox="0 0 21 21" fill="none" xmlns="http://www.w3.org/2000/svg">
<path d="M20.25 8C20.25 9.17188 19.4297 10.1484 18.375 10.4219V14.25C18.375 17.6484 15.5625 20.4609 12.125 20.4609C8.64844 20.4609 5.875 17.6875 5.875 14.25V14.1719C2.71094 13.8594 0.25 11.2031 0.25 8V2.41406C0.25 2.14062 0.367188 1.94531 0.5625 1.78906L3.0625 0.578125C3.375 0.421875 3.76562 0.539062 3.92188 0.851562C4.07812 1.16406 3.96094 1.55469 3.64844 1.71094L1.5 2.76562V8C1.5 10.7734 3.72656 13 6.5 13C9.23438 13 11.5 10.7734 11.5 8V2.76562L9.3125 1.71094C9 1.55469 8.88281 1.16406 9.03906 0.929688C9.19531 0.617188 9.58594 0.5 9.89844 0.65625L12.3984 1.86719C12.5938 1.98438 12.75 2.17969 12.75 2.41406V8C12.75 11.2422 10.25 13.8984 7.125 14.2109V14.25C7.125 16.9844 9.35156 19.25 12.125 19.25C14.8594 19.25 17.125 17.0234 17.125 14.25V10.4219C16.0312 10.1484 15.25 9.17188 15.25 8C15.25 6.67188 16.3438 5.53906 17.75 5.53906C19.1172 5.53906 20.25 6.63281 20.25 8ZM17.75 9.25C18.4141 9.25 19 8.70312 19 8.03906C19 7.41406 18.4141 6.82812 17.75 6.82812C17.0469 6.82812 16.5 7.375 16.5 8.03906C16.5 8.70312 17.0469 9.25 17.75 9.25Z" fill="black"/>
</svg>
