<svg width="18" height="21" viewBox="0 0 18 21" fill="none" xmlns="http://www.w3.org/2000/svg">
<path d="M17.5 14.875C17.5 15.6953 16.9531 16.3984 16.25 16.6719V19.25H16.875C17.1875 19.25 17.5 19.5625 17.5 19.875C17.5 20.2266 17.1875 20.5 16.875 20.5H2.5C1.09375 20.5 0 19.4062 0 18V3.625C0 1.90625 1.36719 0.5 3.125 0.5H15.625C16.6406 0.5 17.5 1.35938 17.5 2.375V14.875ZM1.25 3.625V15.8516C1.60156 15.6562 2.03125 15.5 2.5 15.5H3.75V1.75H3.125C2.07031 1.75 1.25 2.60938 1.25 3.625ZM15 19.25V16.75H2.5C1.79688 16.75 1.25 17.3359 1.25 18C1.25 18.7031 1.79688 19.25 2.5 19.25H15ZM15.625 15.5C15.9375 15.5 16.25 15.2266 16.25 14.875V2.375C16.25 2.0625 15.9375 1.75 15.625 1.75H5V15.5H15.625ZM13.75 5.5C14.0625 5.5 14.375 5.8125 14.375 6.125C14.375 6.47656 14.0625 6.75 13.75 6.75H7.5C7.14844 6.75 6.875 6.47656 6.875 6.125C6.875 5.8125 7.14844 5.5 7.5 5.5H13.75ZM13.75 9.25C14.0625 9.25 14.375 9.5625 14.375 9.875C14.375 10.2266 14.0625 10.5 13.75 10.5H7.5C7.14844 10.5 6.875 10.2266 6.875 9.875C6.875 9.5625 7.14844 9.25 7.5 9.25H13.75Z" fill="black"/>
</svg>
