<svg width="109" height="134" viewBox="0 0 109 134" fill="none" xmlns="http://www.w3.org/2000/svg">
<path d="M29.2304 132.188C29.2134 133.016 29.8711 133.702 30.6993 133.719L44.1965 133.996C45.0247 134.013 45.7099 133.355 45.727 132.527C45.744 131.699 45.0863 131.014 44.2581 130.997L32.2606 130.75L32.5071 118.753C32.5242 117.924 31.8665 117.239 31.0383 117.222C30.21 117.205 29.5248 117.863 29.5078 118.691L29.2304 132.188ZM102.447 1.21899C101.025 1.69537 101.024 1.69513 101.024 1.69504C101.024 1.69521 101.025 1.69528 101.025 1.69562C101.025 1.69632 101.025 1.69762 101.026 1.69952C101.027 1.70333 101.029 1.70956 101.032 1.71817C101.038 1.73539 101.047 1.76215 101.058 1.79823C101.082 1.87037 101.117 1.97973 101.162 2.12441C101.253 2.41379 101.385 2.84435 101.547 3.40096C101.872 4.5144 102.316 6.13095 102.789 8.1297C103.738 12.131 104.802 17.6449 105.272 23.7096C106.22 35.9472 104.712 49.9328 95.5953 58.5547L97.6566 60.7343C107.821 51.1215 109.225 35.8944 108.263 23.4779C107.777 17.2155 106.681 11.5421 105.708 7.43776C105.222 5.3837 104.764 3.71788 104.428 2.56216C104.259 1.98418 104.121 1.53346 104.024 1.22521C103.976 1.07107 103.938 0.95252 103.912 0.871463C103.898 0.830933 103.888 0.799773 103.881 0.778221C103.877 0.767445 103.875 0.75907 103.873 0.753126C103.872 0.750155 103.871 0.74779 103.87 0.746038C103.87 0.745162 103.87 0.744306 103.87 0.743868C103.869 0.743167 103.869 0.742618 102.447 1.21899ZM95.5953 58.5547C90.9492 62.9485 83.4517 67.5143 74.6018 71.3766C65.7712 75.2304 55.6965 78.339 45.9613 79.8737C36.2032 81.4119 26.9132 81.3487 19.5807 78.9823C12.3166 76.638 7.02316 72.0642 4.93807 64.4707L2.04515 65.265C4.44905 74.0197 10.6317 79.2465 18.6593 81.8373C26.6184 84.406 36.4354 84.4124 46.4285 82.8371C56.4444 81.2582 66.7648 78.07 75.8018 74.1261C84.8194 70.1907 92.6619 65.4578 97.6566 60.7343L95.5953 58.5547ZM4.93807 64.4707C2.75946 56.5365 3.06464 49.9983 4.91468 44.8311C6.76352 39.6672 10.1904 35.7712 14.4347 33.164C22.9752 27.9176 34.7878 27.9174 43.4307 33.4356L45.0451 30.907C35.4254 24.7652 22.3759 24.765 12.8644 30.6077C8.08274 33.5451 4.18612 37.966 2.09025 43.8198C-0.00442827 49.6704 -0.265227 56.8509 2.04515 65.265L4.93807 64.4707ZM43.4307 33.4356C51.9026 38.8446 55.6901 50.3978 55.7711 63.8811C55.8516 77.2806 52.2514 92.0912 46.5386 103.338L49.2133 104.697C55.1423 93.0242 58.8544 77.7417 58.771 63.863C58.6882 50.068 54.8357 37.1579 45.0451 30.907L43.4307 33.4356ZM46.5386 103.338C40.7388 114.756 36.4833 121.75 33.6949 125.872C32.3012 127.933 31.2763 129.272 30.6109 130.086C30.2784 130.493 30.0361 130.767 29.8831 130.934C29.8066 131.018 29.7524 131.074 29.7205 131.107C29.7046 131.124 29.6942 131.134 29.6893 131.139C29.6869 131.141 29.6859 131.142 29.6863 131.142C29.6864 131.142 29.687 131.141 29.6878 131.14C29.6883 131.14 29.6888 131.139 29.6894 131.139C29.6897 131.138 29.6902 131.138 29.6904 131.138C29.6909 131.137 29.6915 131.137 30.7301 132.219C31.7688 133.301 31.7694 133.301 31.77 133.3C31.7703 133.3 31.7709 133.299 31.7714 133.299C31.7723 133.298 31.7733 133.297 31.7745 133.296C31.7767 133.294 31.7792 133.291 31.7821 133.288C31.7878 133.283 31.7949 133.276 31.8032 133.268C31.8199 133.251 31.8419 133.229 31.8691 133.201C31.9235 133.145 31.9989 133.066 32.0957 132.96C32.2891 132.749 32.5678 132.432 32.9332 131.985C33.6636 131.092 34.7423 129.678 36.1798 127.553C39.0539 123.304 43.3714 116.198 49.2133 104.697L46.5386 103.338Z" fill="#442E74"/>
</svg>
