<svg width="21" height="21" viewBox="0 0 21 21" fill="none" xmlns="http://www.w3.org/2000/svg">
<path d="M20.3359 11.75C20.6875 11.75 21 12.0625 20.9609 12.4141C20.7266 15.3828 18.6953 17.8438 15.9609 18.8203V19.25C15.9609 19.9531 15.4531 20.5 14.75 20.5H7.25C6.54688 20.5 6 19.9531 6 19.25V18.8203C3.26562 17.8828 1.23438 15.4219 1 12.4141C0.960938 12.0625 1.27344 11.75 1.625 11.75H20.3359ZM15.5703 17.6484C17.6797 16.9062 19.2031 15.1484 19.6328 13H2.32812C2.75781 15.1484 4.32031 16.9062 6.39062 17.6484L7.25 17.9219V19.25H14.7109V17.9219L15.5703 17.6484ZM4.28125 6.32031C4.51562 6.08594 4.94531 6.08594 5.17969 6.32031L8.30469 9.44531C8.53906 9.67969 8.53906 10.1094 8.30469 10.3438C8.1875 10.4609 8.03125 10.5 7.875 10.5C7.67969 10.5 7.52344 10.4609 7.40625 10.3438L4.28125 7.21875C4.04688 6.98438 4.04688 6.55469 4.28125 6.32031ZM9.75 4.875C9.75 4.5625 10.0234 4.25 10.375 4.25C10.6875 4.25 11 4.5625 11 4.875V9.875C11 10.2266 10.6875 10.5 10.375 10.5C10.0234 10.5 9.75 10.2266 9.75 9.875V4.875ZM12.25 9.875C12.25 7.49219 14.2031 5.5 16.625 5.5C19.0078 5.5 21 7.49219 21 9.91406C21 10.2266 20.6875 10.5 20.375 10.5C20.0234 10.5 19.75 10.2266 19.75 9.875C19.75 8.15625 18.3438 6.75 16.625 6.75C14.8672 6.75 13.5 8.15625 13.5 9.875C13.5 10.2266 13.1875 10.5 12.875 10.5C12.5234 10.5 12.25 10.2266 12.25 9.875ZM2.01562 10.5C1.78125 10.5 1.58594 10.3828 1.46875 10.1484C1.15625 9.48438 1 8.74219 1 8C1 5.22656 3.22656 3 6 3C6.07812 3 6.15625 3 6.23438 3C7.05469 1.47656 8.61719 0.5 10.375 0.5C12.0938 0.5 13.6562 1.47656 14.4766 3C15.3359 2.92188 16.1172 3.11719 16.8594 3.46875C17.1719 3.625 17.3281 4.01562 17.1719 4.32812C17.0156 4.64062 16.6641 4.75781 16.3516 4.60156C15.6875 4.28906 14.9453 4.17188 14.2422 4.28906L13.7734 4.36719L13.5391 3.89844C12.9922 2.60938 11.7422 1.75 10.375 1.75C8.96875 1.75 7.71875 2.60938 7.17188 3.89844L7.01562 4.36719L6.50781 4.28906C6.3125 4.28906 6.15625 4.25 6 4.25C3.92969 4.25 2.25 5.92969 2.25 8C2.25 8.58594 2.36719 9.13281 2.60156 9.64062C2.75781 9.95312 2.60156 10.3047 2.28906 10.4609C2.21094 10.5 2.13281 10.5 2.01562 10.5Z" fill="black"/>
</svg>
