<svg width="24" height="21" viewBox="0 0 24 21" fill="none" xmlns="http://www.w3.org/2000/svg">
<path d="M17.875 10.1875C18.3828 10.1875 18.8125 10.6172 18.8125 11.125C18.8125 11.6719 18.3828 12.0625 17.875 12.0625C17.3281 12.0625 16.9375 11.6719 16.9375 11.125C16.9375 10.6172 17.3281 10.1875 17.875 10.1875ZM22.25 9.25C22.9141 9.25 23.5 9.83594 23.4609 10.5V14.2891C23.4609 14.9922 22.875 15.5391 22.2109 15.5391H20.9219C20.5703 16.0078 20.1406 16.4375 19.7109 16.7891V18.6641C19.7109 19.6797 18.8516 20.5 17.8359 20.5H15.9609C14.9453 20.5 14.0859 19.6797 14.0469 18.625V18H11.5469V18.6641C11.5469 19.6797 10.7266 20.5 9.71094 20.5H7.83594C6.82031 20.5 5.96094 19.6797 5.96094 18.625V16.75C4.47656 15.6172 3.46094 13.8203 3.46094 11.75H3.14844C1.85938 11.75 0.84375 10.6172 1 9.28906C1.11719 8.35156 1.82031 7.64844 2.71875 7.45312C3.10938 7.375 3.46094 7.64844 3.46094 8.07812C3.46094 8.35156 3.26562 8.625 2.99219 8.66406C2.5625 8.74219 2.32812 9.05469 2.25 9.40625C2.13281 9.99219 2.60156 10.5 3.14844 10.5H3.57812C3.8125 9.25 4.4375 8.11719 5.33594 7.25781C6.46875 6.16406 8.07031 5.5 9.71094 5.5H15.5703C15.8047 5.34375 17.25 4.28906 19.0859 4.28906L19.75 4.25V6.78906C20.5703 7.45312 21.2734 8.27344 21.7031 9.25H22.25ZM22.2109 14.25V10.5H20.8828C20.1797 8.9375 20.0234 8.58594 18.4609 7.41406V5.57812C17.3281 5.73438 16.6641 6.24219 16 6.75H9.71094C6.97656 6.75 4.71094 9.01562 4.71094 11.75C4.71094 12.4531 4.71094 14.2109 7.21094 16.125V18.625C7.21094 18.9766 7.48438 19.25 7.83594 19.25H9.71094C10.0234 19.25 10.3359 18.9766 10.3359 18.625V16.75H15.3359V18.625C15.3359 18.9766 15.6094 19.25 15.9609 19.25H17.8359C18.1484 19.25 18.4609 18.9766 18.4609 18.625V16.125C19.6328 15.2266 19.6328 15.1484 20.2969 14.25H22.2109ZM7.75781 4.875C7.40625 4.83594 7.17188 4.52344 7.25 4.17188C7.60156 2.0625 9.47656 0.5 11.7031 0.5C13.6172 0.5 15.3359 1.71094 15.9609 3.46875C16.0781 3.78125 15.8828 4.13281 15.5312 4.25C15.2188 4.36719 14.8281 4.17188 14.75 3.85938C14.2812 2.60938 13.0703 1.75 11.7031 1.75C10.1016 1.75 8.77344 2.84375 8.5 4.36719C8.46094 4.67969 8.1875 4.875 7.875 4.875C7.83594 4.875 7.79688 4.875 7.75781 4.875Z" fill="black"/>
</svg>
