<svg width="32" height="24" viewBox="0 0 32 24" fill="none" xmlns="http://www.w3.org/2000/svg">
<g clip-path="url(#clip0_1_584)">
<path d="M4 9C4 6.2375 9.31875 4 16 4C22.5688 4 28 6.23875 28 9C28 10.3631 26.6906 11.5981 24.5688 12.5C22.3937 11.575 19.3563 11 16 11C12.6438 11 9.6125 11.575 7.43125 12.5C5.3125 11.6 4 10.3625 4 9Z" fill="#4E00FF"/>
<path d="M16 0C6.88125 0 0 3.86875 0 9V15.1331C0 20.0312 7.1625 24 16 24C24.8375 24 32 20.03 32 15.1313V9C32 3.86875 25.1187 0 16 0ZM16 14C9.31875 14 4 11.7625 4 9C4 6.2375 9.31875 4 16 4C22.5688 4 28 6.23875 28 9C28 11.7612 22.5688 14 16 14Z" fill="#DFD1FF"/>
</g>
<defs>
<clipPath id="clip0_1_584">
<rect width="32" height="24" fill="white"/>
</clipPath>
</defs>
</svg>
