<svg width="15" height="21" viewBox="0 0 15 21" fill="none" xmlns="http://www.w3.org/2000/svg">
<path d="M4.375 5.5C4.02344 5.5 3.75 5.22656 3.75 4.875C3.75 4.5625 4.02344 4.25 4.375 4.25H5.3125C5.11719 3.89844 5 3.46875 5 3C5 1.63281 6.09375 0.5 7.5 0.5C8.86719 0.5 10 1.63281 10 3C10 3.46875 9.84375 3.89844 9.64844 4.25H10.625C10.9375 4.25 11.25 4.5625 11.25 4.875C11.25 5.22656 10.9375 5.5 10.625 5.5H4.375ZM7.5 1.75C6.79688 1.75 6.25 2.33594 6.25 3C6.25 3.70312 6.79688 4.25 7.5 4.25C8.16406 4.25 8.75 3.70312 8.75 3C8.75 2.33594 8.16406 1.75 7.5 1.75ZM12.5 3C13.8672 3 15 4.13281 15 5.5V18C15 19.4062 13.8672 20.5 12.5 20.5H2.5C1.09375 20.5 0 19.4062 0 18V5.5C0 4.13281 1.09375 3 2.5 3C2.8125 3 3.125 3.3125 3.125 3.625C3.125 3.97656 2.8125 4.25 2.5 4.25C1.79688 4.25 1.25 4.83594 1.25 5.5V18C1.25 18.7031 1.79688 19.25 2.5 19.25H12.5C13.1641 19.25 13.75 18.7031 13.75 18V5.5C13.75 4.83594 13.1641 4.25 12.5 4.25C12.1484 4.25 11.875 3.97656 11.875 3.625C11.875 3.3125 12.1484 3 12.5 3ZM4.375 13.625C4.02344 13.625 3.75 13.3516 3.75 13V11.75C3.75 11.4375 4.02344 11.125 4.375 11.125H6.25V9.25C6.25 8.9375 6.52344 8.625 6.875 8.625H8.125C8.4375 8.625 8.75 8.9375 8.75 9.25V11.125H10.625C10.9375 11.125 11.25 11.4375 11.25 11.75V13C11.25 13.3516 10.9375 13.625 10.625 13.625H8.75V15.5C8.75 15.8516 8.4375 16.125 8.125 16.125H6.875C6.52344 16.125 6.25 15.8516 6.25 15.5V13.625H4.375Z" fill="black"/>
</svg>
