<svg width="17" height="23" viewBox="0 0 17 23" fill="none" xmlns="http://www.w3.org/2000/svg">
<path d="M14.4375 7.625C14.7812 7.625 15.125 7.96875 15.125 8.3125V20C15.125 21.5469 13.8789 22.75 12.375 22.75H4.125C2.57812 22.75 1.375 21.5469 1.375 20V8.3125C1.375 7.96875 1.67578 7.625 2.0625 7.625C2.40625 7.625 2.75 7.96875 2.75 8.3125V9H6.1875C6.53125 9 6.875 9.34375 6.875 9.6875C6.875 10.0742 6.53125 10.375 6.1875 10.375H2.75V13.125H6.1875C6.53125 13.125 6.875 13.4688 6.875 13.8125C6.875 14.1992 6.53125 14.5 6.1875 14.5H2.75V17.25H6.1875C6.53125 17.25 6.875 17.5938 6.875 17.9375C6.875 18.3242 6.53125 18.625 6.1875 18.625H2.75V20C2.75 20.7734 3.35156 21.375 4.125 21.375H12.375C13.1055 21.375 13.75 20.7734 13.75 20V8.3125C13.75 7.96875 14.0508 7.625 14.4375 7.625ZM15.125 0.75C15.8555 0.75 16.5 1.39453 16.5 2.125V4.875C16.5 5.64844 15.8555 6.25 15.125 6.25H1.375C0.601562 6.25 0 5.64844 0 4.875V2.125C0 1.39453 0.601562 0.75 1.375 0.75H15.125ZM15.125 4.875V2.125H1.375V4.875H15.125Z" fill="black"/>
</svg>
