<svg width="13" height="21" viewBox="0 0 13 21" fill="none" xmlns="http://www.w3.org/2000/svg">
<path d="M10.25 0.5C11.6172 0.5 12.75 1.63281 12.75 3V18C12.75 19.4062 11.6172 20.5 10.25 20.5H2.75C1.34375 20.5 0.25 19.4062 0.25 18V3C0.25 1.63281 1.34375 0.5 2.75 0.5H10.25ZM5.25 1.75V2.375H7.75V1.75H5.25ZM11.5 18V3C11.5 2.33594 10.9141 1.75 10.25 1.75H9V2.375C9 3.07812 8.41406 3.625 7.75 3.625H5.25C4.54688 3.625 4 3.07812 4 2.375V1.75H2.75C2.04688 1.75 1.5 2.33594 1.5 3V18C1.5 18.7031 2.04688 19.25 2.75 19.25H10.25C10.9141 19.25 11.5 18.7031 11.5 18ZM7.75 16.125C8.0625 16.125 8.375 16.4375 8.375 16.75C8.375 17.1016 8.0625 17.375 7.75 17.375H5.25C4.89844 17.375 4.625 17.1016 4.625 16.75C4.625 16.4375 4.89844 16.125 5.25 16.125H7.75Z" fill="black"/>
</svg>
